<?xml version="1.0" standalone="no"?>
<!DOCTYPE svg PUBLIC "-//W3C//DTD SVG 20010904//EN"
 "http://www.w3.org/TR/2001/REC-SVG-20010904/DTD/svg10.dtd">
<svg version="1.0" xmlns="http://www.w3.org/2000/svg"
 width="560.000000pt" height="560.000000pt" viewBox="0 0 560.000000 560.000000"
 preserveAspectRatio="xMidYMid meet">
<metadata>
Created by potrace 1.11, written by Peter Selinger 2001-2013
</metadata>
<g transform="translate(0.000000,560.000000) scale(0.100000,-0.100000)"
fill="#000000" stroke="none">
<path d="M1683 5190 c-61 -13 -131 -38 -188 -68 -64 -35 -66 -36 -139 -107
-78 -75 -129 -155 -161 -249 -20 -61 -40 -172 -37 -211 15 -202 55 -306 162
-429 46 -52 136 -126 155 -126 3 0 13 -6 22 -14 10 -8 46 -36 80 -61 71 -53
195 -173 238 -230 17 -22 32 -42 35 -45 3 -3 26 -35 51 -71 86 -123 190 -362
215 -492 27 -139 32 -186 32 -287 -1 -116 -22 -285 -45 -355 -4 -11 -7 -22 -8
-25 -9 -49 -114 -290 -126 -290 -5 0 -9 -6 -9 -14 0 -17 -101 -160 -151 -213
-19 -21 -58 -58 -85 -82 -148 -131 -189 -168 -206 -183 -9 -10 -44 -36 -76
-58 -116 -78 -203 -194 -248 -327 -34 -99 -41 -259 -17 -356 19 -76 62 -173
99 -224 57 -78 154 -161 238 -203 46 -22 94 -43 107 -45 13 -3 38 -8 54 -12
39 -9 209 -9 258 0 64 12 184 67 245 112 137 102 220 237 257 420 2 11 6 74 9
140 8 187 34 300 119 530 6 17 23 52 39 78 15 26 28 51 28 54 0 11 103 158
149 213 95 114 221 222 346 298 66 40 102 69 149 121 17 19 36 39 42 45 13 14
69 120 85 161 24 63 37 150 34 238 -6 220 -107 387 -320 527 -161 106 -334
277 -448 443 -26 37 -44 67 -41 67 3 0 -3 12 -14 28 -28 39 -125 269 -122 290
0 1 0 3 -1 5 -1 5 -8 33 -13 57 -20 91 -28 148 -32 245 -7 168 -15 222 -46
299 -72 185 -219 323 -408 386 -72 23 -234 34 -307 20z"/>
<path d="M3738 5184 c-2 -1 -16 -5 -33 -8 -95 -17 -150 -36 -222 -77 -130 -72
-230 -193 -283 -337 -34 -94 -50 -228 -36 -302 3 -19 8 -46 10 -60 3 -14 5
-25 6 -25 1 0 3 -7 5 -15 5 -29 48 -125 63 -142 8 -10 11 -18 6 -18 -5 0 -4
-4 1 -8 6 -4 22 -23 36 -42 100 -133 246 -220 414 -246 49 -8 161 -8 195 -1
82 17 133 34 193 66 199 106 329 303 343 521 2 41 6 80 9 87 2 6 1 14 -3 18
-3 3 -7 16 -8 28 -4 80 -63 227 -122 305 -97 128 -259 225 -411 248 -43 6
-160 12 -163 8z"/>
<path d="M688 3433 c-92 -17 -207 -63 -244 -97 -7 -6 -35 -29 -62 -51 -27 -22
-60 -55 -73 -73 -13 -18 -32 -42 -42 -54 -10 -12 -20 -32 -23 -45 -4 -13 -9
-23 -13 -23 -10 0 -48 -104 -59 -164 -8 -40 -7 -223 1 -256 28 -120 83 -223
163 -309 185 -201 486 -260 733 -144 123 57 234 162 295 278 22 43 50 110 46
110 -1 0 3 12 9 26 5 15 12 53 16 85 3 32 8 60 10 63 2 2 0 12 -5 22 -6 10 -6
20 -2 23 18 11 -28 197 -68 277 -37 72 -150 199 -208 233 -172 100 -313 130
-474 99z"/>
<path d="M4680 3434 c-162 -34 -290 -114 -390 -244 -75 -95 -123 -224 -125
-327 0 -18 -3 -33 -6 -33 -12 0 6 -145 27 -215 15 -48 62 -155 74 -165 3 -3
20 -25 39 -50 46 -61 127 -127 211 -172 39 -21 70 -36 70 -33 0 2 19 -2 41
-11 49 -17 113 -26 189 -26 205 0 401 109 527 292 17 25 31 48 32 53 0 4 7 20
14 35 37 73 51 148 50 257 0 125 -5 158 -36 235 -47 121 -139 236 -244 306
-51 34 -153 81 -198 91 -88 19 -202 22 -275 7z"/>
<path d="M3685 1693 c-89 -19 -97 -22 -130 -35 -55 -21 -167 -99 -213 -146
-139 -146 -203 -340 -177 -537 34 -257 248 -493 490 -541 11 -2 31 -6 45 -9
32 -7 166 -7 205 0 90 17 172 51 256 107 141 93 255 279 273 443 14 126 6 197
-34 307 -107 295 -420 475 -715 411z"/>
</g>
</svg>
