<?xml version="1.0" standalone="no"?>
<!DOCTYPE svg PUBLIC "-//W3C//DTD SVG 20010904//EN"
 "http://www.w3.org/TR/2001/REC-SVG-20010904/DTD/svg10.dtd">
<svg version="1.0" xmlns="http://www.w3.org/2000/svg"
 width="2284.000000pt" height="2284.000000pt" viewBox="0 0 2284.000000 2284.000000"
 preserveAspectRatio="xMidYMid meet">
<metadata>
Created by potrace 1.11, written by Peter Selinger 2001-2013
</metadata>
<g transform="translate(0.000000,2284.000000) scale(0.100000,-0.100000)"
fill="#000000" stroke="none">
<path d="M11165 20873 c-719 -57 -1223 -189 -1800 -473 -479 -235 -869 -519
-1245 -907 -490 -504 -846 -1095 -1066 -1770 -160 -491 -245 -1092 -216 -1520
57 -827 308 -1588 739 -2243 101 -152 235 -333 325 -436 150 -173 302 -338
478 -519 107 -110 258 -272 335 -360 77 -87 217 -240 310 -340 94 -99 265
-284 380 -410 116 -126 239 -261 275 -300 36 -39 124 -136 195 -215 72 -79
163 -179 203 -222 39 -43 82 -98 93 -121 12 -23 30 -52 40 -65 l18 -23 -137
-128 c-75 -71 -241 -225 -369 -342 -127 -118 -411 -387 -630 -599 -219 -212
-486 -464 -593 -561 -420 -380 -530 -535 -575 -812 -29 -178 -37 -212 -60
-257 -23 -45 -100 -149 -233 -314 -100 -125 -214 -289 -305 -441 -188 -313
-383 -780 -472 -1130 -66 -260 -80 -361 -79 -570 0 -156 4 -197 27 -308 89
-419 295 -851 741 -1550 186 -293 196 -318 196 -519 0 -351 193 -665 506 -822
204 -102 394 -117 601 -47 138 48 226 104 343 221 121 121 181 216 232 370 28
84 31 108 32 215 1 145 -14 207 -84 352 -160 330 -457 508 -882 529 -105 5
-129 10 -166 31 -48 27 -99 88 -168 200 -46 74 -92 135 -200 263 -159 189
-268 414 -320 660 -42 198 -43 348 -3 707 19 168 84 379 191 618 176 395 535
899 685 962 24 9 91 19 178 24 169 10 232 25 350 84 149 73 239 147 750 619
245 226 626 568 1020 916 121 106 267 237 325 290 269 247 318 275 415 239 57
-21 135 -83 310 -244 61 -55 207 -186 325 -291 118 -104 339 -299 490 -434
151 -135 374 -331 495 -436 121 -105 306 -268 410 -363 222 -202 295 -259 390
-306 99 -49 170 -65 330 -74 179 -10 204 -21 310 -132 98 -103 178 -207 288
-375 241 -370 404 -754 452 -1064 18 -113 20 -521 4 -620 -26 -160 -88 -293
-349 -745 -183 -317 -231 -394 -288 -457 -61 -68 -85 -75 -282 -81 -254 -8
-399 -51 -570 -167 -262 -178 -425 -519 -380 -797 28 -177 109 -338 237 -473
347 -366 837 -378 1194 -30 118 116 188 227 238 378 26 82 38 151 50 289 6 62
15 130 21 152 5 21 45 92 87 157 548 849 690 1129 813 1610 80 314 88 500 36
794 -74 411 -176 715 -376 1125 -133 273 -281 502 -489 754 -219 266 -230 288
-249 481 -12 110 -45 224 -86 294 -81 138 -251 306 -846 837 -633 564 -1288
1175 -1686 1573 -159 160 -404 397 -544 526 -140 129 -293 271 -340 315 -47
45 -110 103 -140 130 -58 52 -392 361 -540 500 -47 44 -164 152 -260 240 -95
88 -244 225 -330 305 -86 80 -236 219 -335 310 -332 307 -481 449 -536 512
-30 34 -113 123 -184 198 -79 81 -150 166 -180 214 -28 44 -103 161 -168 260
-283 431 -437 854 -488 1341 -16 155 -16 586 0 740 66 629 316 1185 749 1671
104 117 246 243 407 364 407 303 890 493 1405 551 169 20 659 17 828 -4 519
-65 963 -246 1407 -573 163 -120 421 -379 546 -546 333 -447 521 -917 581
-1448 16 -151 16 -640 -1 -790 -24 -212 -91 -511 -147 -651 -15 -37 -18 -39
-60 -39 -69 0 -258 -29 -358 -55 -251 -65 -494 -188 -690 -348 -138 -113 -290
-288 -394 -452 -50 -81 -137 -272 -170 -375 -70 -219 -103 -488 -84 -686 24
-248 75 -438 176 -649 373 -776 1241 -1170 2081 -945 693 185 1206 772 1300
1487 67 507 -87 1027 -414 1402 -62 72 -64 75 -52 105 47 122 137 408 169 541
98 396 152 845 138 1138 -49 1048 -437 2040 -1094 2798 -110 128 -426 440
-542 536 -666 552 -1485 905 -2349 1013 -278 35 -492 46 -646 33z m3240 -6767
c98 -31 186 -87 257 -165 68 -73 100 -127 134 -227 23 -67 28 -96 28 -184 0
-163 -50 -291 -161 -411 -143 -154 -346 -220 -587 -190 -111 13 -161 37 -245
117 -78 73 -153 194 -189 303 -37 112 -36 256 1 365 35 100 67 154 134 227
163 175 399 238 628 165z"/>
</g>
</svg>
